<svg width="26" height="26" viewBox="0 0 26 26" fill="none" xmlns="http://www.w3.org/2000/svg">
<g clip-path="url(#clip0_7_3300)">
<path d="M7.58333 15.1667C7.58333 15.454 7.4692 15.7295 7.26603 15.9327C7.06287 16.1359 6.78732 16.25 6.5 16.25H5.41667C5.12935 16.25 4.8538 16.1359 4.65063 15.9327C4.44747 15.7295 4.33333 15.454 4.33333 15.1667C4.33333 14.8793 4.44747 14.6038 4.65063 14.4006C4.8538 14.1975 5.12935 14.0833 5.41667 14.0833H6.5C6.78732 14.0833 7.06287 14.1975 7.26603 14.4006C7.4692 14.6038 7.58333 14.8793 7.58333 15.1667ZM11.9167 14.0833H10.8333C10.546 14.0833 10.2705 14.1975 10.0673 14.4006C9.86414 14.6038 9.75 14.8793 9.75 15.1667C9.75 15.454 9.86414 15.7295 10.0673 15.9327C10.2705 16.1359 10.546 16.25 10.8333 16.25H11.9167C12.204 16.25 12.4795 16.1359 12.6827 15.9327C12.8859 15.7295 13 15.454 13 15.1667C13 14.8793 12.8859 14.6038 12.6827 14.4006C12.4795 14.1975 12.204 14.0833 11.9167 14.0833ZM6.5 18.4167H5.41667C5.12935 18.4167 4.8538 18.5308 4.65063 18.734C4.44747 18.9371 4.33333 19.2127 4.33333 19.5C4.33333 19.7873 4.44747 20.0629 4.65063 20.266C4.8538 20.4692 5.12935 20.5833 5.41667 20.5833H6.5C6.78732 20.5833 7.06287 20.4692 7.26603 20.266C7.4692 20.0629 7.58333 19.7873 7.58333 19.5C7.58333 19.2127 7.4692 18.9371 7.26603 18.734C7.06287 18.5308 6.78732 18.4167 6.5 18.4167ZM11.9167 18.4167H10.8333C10.546 18.4167 10.2705 18.5308 10.0673 18.734C9.86414 18.9371 9.75 19.2127 9.75 19.5C9.75 19.7873 9.86414 20.0629 10.0673 20.266C10.2705 20.4692 10.546 20.5833 10.8333 20.5833H11.9167C12.204 20.5833 12.4795 20.4692 12.6827 20.266C12.8859 20.0629 13 19.7873 13 19.5C13 19.2127 12.8859 18.9371 12.6827 18.734C12.4795 18.5308 12.204 18.4167 11.9167 18.4167ZM6.5 5.41667H5.41667C5.12935 5.41667 4.8538 5.5308 4.65063 5.73397C4.44747 5.93713 4.33333 6.21268 4.33333 6.5C4.33333 6.78732 4.44747 7.06287 4.65063 7.26603C4.8538 7.4692 5.12935 7.58333 5.41667 7.58333H6.5C6.78732 7.58333 7.06287 7.4692 7.26603 7.26603C7.4692 7.06287 7.58333 6.78732 7.58333 6.5C7.58333 6.21268 7.4692 5.93713 7.26603 5.73397C7.06287 5.5308 6.78732 5.41667 6.5 5.41667ZM11.9167 5.41667H10.8333C10.546 5.41667 10.2705 5.5308 10.0673 5.73397C9.86414 5.93713 9.75 6.21268 9.75 6.5C9.75 6.78732 9.86414 7.06287 10.0673 7.26603C10.2705 7.4692 10.546 7.58333 10.8333 7.58333H11.9167C12.204 7.58333 12.4795 7.4692 12.6827 7.26603C12.8859 7.06287 13 6.78732 13 6.5C13 6.21268 12.8859 5.93713 12.6827 5.73397C12.4795 5.5308 12.204 5.41667 11.9167 5.41667ZM6.5 9.75H5.41667C5.12935 9.75 4.8538 9.86414 4.65063 10.0673C4.44747 10.2705 4.33333 10.546 4.33333 10.8333C4.33333 11.1207 4.44747 11.3962 4.65063 11.5994C4.8538 11.8025 5.12935 11.9167 5.41667 11.9167H6.5C6.78732 11.9167 7.06287 11.8025 7.26603 11.5994C7.4692 11.3962 7.58333 11.1207 7.58333 10.8333C7.58333 10.546 7.4692 10.2705 7.26603 10.0673C7.06287 9.86414 6.78732 9.75 6.5 9.75ZM11.9167 9.75H10.8333C10.546 9.75 10.2705 9.86414 10.0673 10.0673C9.86414 10.2705 9.75 10.546 9.75 10.8333C9.75 11.1207 9.86414 11.3962 10.0673 11.5994C10.2705 11.8025 10.546 11.9167 10.8333 11.9167H11.9167C12.204 11.9167 12.4795 11.8025 12.6827 11.5994C12.8859 11.3962 13 11.1207 13 10.8333C13 10.546 12.8859 10.2705 12.6827 10.0673C12.4795 9.86414 12.204 9.75 11.9167 9.75ZM26 10.8333V20.5833C25.9983 22.0194 25.427 23.3961 24.4116 24.4116C23.3961 25.427 22.0194 25.9983 20.5833 26H5.41667C3.98061 25.9983 2.60385 25.427 1.5884 24.4116C0.572955 23.3961 0.00172018 22.0194 0 20.5833L0 5.41667C0.00172018 3.98061 0.572955 2.60385 1.5884 1.5884C2.60385 0.572955 3.98061 0.00172018 5.41667 0L11.9167 0C13.3527 0.00172018 14.7295 0.572955 15.7449 1.5884C16.7604 2.60385 17.3316 3.98061 17.3333 5.41667H20.5833C22.0194 5.41839 23.3961 5.98962 24.4116 7.00507C25.427 8.02052 25.9983 9.39727 26 10.8333ZM5.41667 23.8333H15.1667V5.41667C15.1667 4.55471 14.8243 3.72806 14.2148 3.11857C13.6053 2.50908 12.7786 2.16667 11.9167 2.16667H5.41667C4.55471 2.16667 3.72806 2.50908 3.11857 3.11857C2.50908 3.72806 2.16667 4.55471 2.16667 5.41667V20.5833C2.16667 21.4453 2.50908 22.2719 3.11857 22.8814C3.72806 23.4909 4.55471 23.8333 5.41667 23.8333ZM23.8333 10.8333C23.8333 9.97138 23.4909 9.14473 22.8814 8.53524C22.2719 7.92574 21.4453 7.58333 20.5833 7.58333H17.3333V23.8333H20.5833C21.4453 23.8333 22.2719 23.4909 22.8814 22.8814C23.4909 22.2719 23.8333 21.4453 23.8333 20.5833V10.8333ZM20.5833 14.0833C20.3691 14.0833 20.1596 14.1469 19.9815 14.2659C19.8033 14.3849 19.6645 14.5541 19.5825 14.7521C19.5005 14.95 19.479 15.1679 19.5208 15.378C19.5626 15.5882 19.6658 15.7812 19.8173 15.9327C19.9688 16.0842 20.1618 16.1874 20.372 16.2292C20.5821 16.271 20.8 16.2495 20.9979 16.1675C21.1959 16.0855 21.3651 15.9467 21.4841 15.7685C21.6031 15.5904 21.6667 15.3809 21.6667 15.1667C21.6667 14.8793 21.5525 14.6038 21.3494 14.4006C21.1462 14.1975 20.8707 14.0833 20.5833 14.0833ZM20.5833 18.4167C20.3691 18.4167 20.1596 18.4802 19.9815 18.5992C19.8033 18.7183 19.6645 18.8875 19.5825 19.0854C19.5005 19.2834 19.479 19.5012 19.5208 19.7113C19.5626 19.9215 19.6658 20.1145 19.8173 20.266C19.9688 20.4175 20.1618 20.5207 20.372 20.5625C20.5821 20.6043 20.8 20.5829 20.9979 20.5009C21.1959 20.4189 21.3651 20.28 21.4841 20.1019C21.6031 19.9237 21.6667 19.7143 21.6667 19.5C21.6667 19.2127 21.5525 18.9371 21.3494 18.734C21.1462 18.5308 20.8707 18.4167 20.5833 18.4167ZM20.5833 9.75C20.3691 9.75 20.1596 9.81354 19.9815 9.93258C19.8033 10.0516 19.6645 10.2208 19.5825 10.4188C19.5005 10.6167 19.479 10.8345 19.5208 11.0447C19.5626 11.2548 19.6658 11.4479 19.8173 11.5994C19.9688 11.7509 20.1618 11.8541 20.372 11.8959C20.5821 11.9377 20.8 11.9162 20.9979 11.8342C21.1959 11.7522 21.3651 11.6134 21.4841 11.4352C21.6031 11.257 21.6667 11.0476 21.6667 10.8333C21.6667 10.546 21.5525 10.2705 21.3494 10.0673C21.1462 9.86414 20.8707 9.75 20.5833 9.75Z" fill="#374957"/>
</g>
<defs>
<clipPath id="clip0_7_3300">
<rect width="26" height="26" fill="white"/>
</clipPath>
</defs>
</svg>
