<svg width="26" height="26" viewBox="0 0 26 26" fill="none" xmlns="http://www.w3.org/2000/svg">
<g clip-path="url(#clip0_7_3298)">
<path d="M25.048 9.82467L16.8309 1.6065C15.8139 0.592488 14.4364 0.0230713 13.0003 0.0230713C11.5641 0.0230713 10.1866 0.592488 9.16959 1.6065L0.952507 9.82467C0.649635 10.1256 0.409508 10.4837 0.246047 10.8781C0.0825853 11.2725 -0.000958793 11.6955 0.000257227 12.1224V22.7575C0.000257227 23.6195 0.342667 24.4461 0.95216 25.0556C1.56165 25.6651 2.3883 26.0075 3.25026 26.0075H22.7503C23.6122 26.0075 24.4389 25.6651 25.0484 25.0556C25.6578 24.4461 26.0003 23.6195 26.0003 22.7575V12.1224C26.0015 11.6955 25.9179 11.2725 25.7545 10.8781C25.591 10.4837 25.3509 10.1256 25.048 9.82467ZM16.2503 23.8408H9.75026V19.579C9.75026 18.717 10.0927 17.8904 10.7022 17.2809C11.3117 16.6714 12.1383 16.329 13.0003 16.329C13.8622 16.329 14.6889 16.6714 15.2984 17.2809C15.9078 17.8904 16.2503 18.717 16.2503 19.579V23.8408ZM23.8336 22.7575C23.8336 23.0448 23.7195 23.3204 23.5163 23.5235C23.3131 23.7267 23.0376 23.8408 22.7503 23.8408H18.4169V19.579C18.4169 18.1424 17.8462 16.7647 16.8304 15.7488C15.8146 14.733 14.4368 14.1623 13.0003 14.1623C11.5637 14.1623 10.1859 14.733 9.1701 15.7488C8.15427 16.7647 7.58359 18.1424 7.58359 19.579V23.8408H3.25026C2.96294 23.8408 2.68739 23.7267 2.48423 23.5235C2.28106 23.3204 2.16692 23.0448 2.16692 22.7575V12.1224C2.16793 11.8353 2.28196 11.5602 2.48434 11.3565L10.7014 3.14158C11.3121 2.53376 12.1386 2.19252 13.0003 2.19252C13.8619 2.19252 14.6884 2.53376 15.2991 3.14158L23.5162 11.3597C23.7178 11.5626 23.8317 11.8364 23.8336 12.1224V22.7575Z" fill="#374957"/>
</g>
<defs>
<clipPath id="clip0_7_3298">
<rect width="26" height="26" fill="white"/>
</clipPath>
</defs>
</svg>
