<svg width="127" height="19" viewBox="0 0 127 19" fill="none" xmlns="http://www.w3.org/2000/svg">
<g opacity="0.5">
<path d="M9.35629 12.7237C9.40391 12.5934 9.42771 12.4794 9.42771 12.3817C9.42771 11.8445 8.90395 11.4456 7.85643 11.1851C6.8089 10.9083 5.6503 10.7862 4.38056 10.8188V13.8959L5.19 13.9203C6.12644 13.9203 7.00732 13.8389 7.83262 13.6761C8.67383 13.497 9.18174 13.1795 9.35629 12.7237ZM4.38056 6.20308C5.25352 6.05655 5.99155 5.83676 6.59464 5.5437C7.19778 5.23438 7.49932 4.86805 7.49932 4.44473C7.49932 4.11909 7.24539 3.90745 6.73748 3.80977C6.24548 3.71208 5.62649 3.66324 4.88051 3.66324C4.75357 3.64697 4.58692 3.63882 4.38056 3.63882V6.20308ZM9.3801 8.05912C10.9038 8.33592 12.11 8.85688 12.9988 9.62211C13.9035 10.3873 14.3558 11.2828 14.3558 12.3085C14.3558 12.9272 14.1733 13.5702 13.8083 14.2378C13.4591 14.889 12.9195 15.5321 12.1894 16.1671C11.1101 17.0625 9.77692 17.6894 8.18973 18.0476C6.60259 18.4057 4.97574 18.5848 3.30922 18.5848C2.13476 18.5848 1.07928 18.5197 0.142846 18.3895L0 0.561696C1.60304 0.268637 3.19814 0.122108 4.78528 0.122108C6.22962 0.122108 7.53108 0.244216 8.68968 0.488432C9.8642 0.732648 10.7927 1.09081 11.4751 1.56298C12.1735 2.03515 12.5227 2.59685 12.5227 3.24807C12.5227 4.15983 12.2132 5.039 11.5942 5.8856C10.9911 6.7322 10.2531 7.45674 9.3801 8.05912ZM21.2639 0V18.5116H16.7405V0H21.2639ZM47.6091 6.69152C48.7205 7.45674 49.7361 8.68593 50.6565 10.3792L46.9187 10.8432C46.5854 10.3873 46.1807 10.0047 45.7045 9.69537C45.2284 9.38605 44.7208 9.23136 44.1809 9.23136C43.6571 9.23136 43.1257 9.40231 42.5858 9.74422C41.9668 10.1675 41.4987 10.6316 41.1812 11.1362C40.8797 11.6247 40.7288 12.1213 40.7288 12.626C40.7288 13.0656 40.8478 13.4889 41.0859 13.8959C41.324 14.2866 41.6654 14.6285 42.1096 14.9216C42.6177 15.2147 43.0938 15.3612 43.5381 15.3612C44.1414 15.3612 44.7127 15.1577 45.2522 14.7506C45.7922 14.3273 46.2921 13.7819 46.7521 13.1144L50.6565 13.6028C50.3708 15.0681 49.6647 16.3218 48.5376 17.3638C47.4111 18.4057 45.8398 18.9512 43.8238 19C42.2525 19 40.9512 18.6907 39.9194 18.072C38.888 17.4533 38.1338 16.6555 37.6577 15.6787C37.1977 14.6855 36.9673 13.6354 36.9673 12.5283C36.9673 11.8282 37.0468 11.1851 37.2053 10.599C37.412 9.8989 37.8562 9.14994 38.5385 8.35219C39.237 7.55443 40.086 6.88689 41.0859 6.34961C42.0858 5.81234 43.1176 5.5437 44.1809 5.5437C45.3712 5.5437 46.514 5.92629 47.6091 6.69152ZM52.9368 0.293059H59.1267L58.1506 8.69409L61.5788 5.59254L67.0069 6.47172L62.1502 11.1118L68.4115 16.7044L64.2452 18.6581L57.603 12.7725L57.9601 18.6581H52.5558L52.9368 0.293059ZM79.8648 5.81234C79.8648 5.43786 79.6905 5.12038 79.341 4.8599L75.8175 3.93188V8.8162C76.1508 8.8162 76.6508 8.66151 77.3174 8.35219C77.984 8.02655 78.5716 7.6358 79.0791 7.17995C79.6029 6.72409 79.8648 6.26819 79.8648 5.81234ZM75.3176 18.3406H70.7942V1.07455C71.3022 0.78149 71.9293 0.561697 72.6749 0.415167C73.4368 0.252373 74.2624 0.170951 75.1509 0.170951C76.627 0.170951 78.0554 0.374481 79.4362 0.781491C80.8333 1.17224 81.8884 1.72578 82.6026 2.44216C83.5868 3.35392 84.0787 4.32262 84.0787 5.34833C84.0787 6.42288 83.5787 7.46485 82.5788 8.47429C81.5789 9.48374 80.3966 10.3385 79.0315 11.0386C77.6826 11.7386 76.516 12.2026 75.5318 12.4306L75.3176 18.3406ZM92.655 6.54499V18.536H87.6079V6.54499H92.655ZM89.5601 1.07455C89.1477 1.12339 88.6716 1.34319 88.1316 1.73393C87.5922 2.12468 87.2746 2.50727 87.1793 2.88175C87.3065 3.76093 87.6241 4.42847 88.1316 4.88432C88.6397 5.34017 89.2506 5.56812 89.9648 5.56812C90.5838 5.56812 91.2028 5.39717 91.8218 5.05527C92.457 4.6971 92.9883 4.20867 93.4169 3.58997C93.4012 2.74338 93.0997 2.10026 92.5122 1.66067C91.9408 1.20481 91.2504 0.976864 90.441 0.976864C90.1077 0.976864 89.8143 1.00944 89.5601 1.07455ZM106.198 6.69152C107.309 7.45674 108.325 8.68593 109.245 10.3792L105.507 10.8432C105.174 10.3873 104.769 10.0047 104.293 9.69537C103.817 9.38605 103.309 9.23136 102.769 9.23136C102.246 9.23136 101.714 9.40231 101.174 9.74422C100.555 10.1675 100.087 10.6316 99.7696 11.1362C99.4682 11.6247 99.3173 12.1213 99.3173 12.626C99.3173 13.0656 99.4363 13.4889 99.6744 13.8959C99.9125 14.2866 100.254 14.6285 100.698 14.9216C101.206 15.2147 101.682 15.3612 102.127 15.3612C102.73 15.3612 103.301 15.1577 103.841 14.7506C104.381 14.3273 104.881 13.7819 105.341 13.1144L109.245 13.6028C108.959 15.0681 108.253 16.3218 107.126 17.3638C106 18.4057 104.428 18.9512 102.412 19C100.841 19 99.5396 18.6907 98.5078 18.072C97.4765 17.4533 96.7223 16.6555 96.2461 15.6787C95.7862 14.6855 95.5557 13.6354 95.5557 12.5283C95.5557 11.8282 95.6352 11.1851 95.7938 10.599C96.0005 9.8989 96.4447 9.14994 97.127 8.35219C97.8255 7.55443 98.6745 6.88689 99.6744 6.34961C100.674 5.81234 101.706 5.5437 102.769 5.5437C103.96 5.5437 105.102 5.92629 106.198 6.69152ZM111.525 0.293059H117.715L116.739 8.69409L120.167 5.59254L125.595 6.47172L120.739 11.1118L127 16.7044L122.834 18.6581L116.191 12.7725L116.549 18.6581H111.144L111.525 0.293059Z" fill="#505050"/>
<path d="M30.0993 9.1728L29.8136 14.2281L31.6944 14.1304L32.3134 8.92858L30.0993 9.1728ZM34.7656 18.917L23.5047 18.7461L24.4332 5.50956L35.7893 4.60596L34.7656 18.917Z" fill="#4CC9C8"/>
</g>
</svg>
