<svg width="26" height="26" viewBox="0 0 26 26" fill="none" xmlns="http://www.w3.org/2000/svg">
<g clip-path="url(#clip0_7_3301)">
<path d="M26 17.3333V22.7499C26 23.6119 25.6576 24.4385 25.0481 25.048C24.4386 25.6575 23.612 25.9999 22.75 25.9999H17.3333C15.8135 25.9984 14.3208 25.5972 13.005 24.8366C11.6892 24.076 10.5966 22.9828 9.83667 21.6666C10.6534 21.6608 11.4673 21.5707 12.2655 21.3979C12.8734 22.1581 13.6446 22.7716 14.5219 23.1932C15.3991 23.6148 16.36 23.8335 17.3333 23.8333H22.75C23.0373 23.8333 23.3129 23.7191 23.516 23.516C23.7192 23.3128 23.8333 23.0373 23.8333 22.7499V17.3333C23.8331 16.3596 23.6136 15.3985 23.1913 14.5212C22.769 13.6439 22.1546 12.8729 21.3937 12.2654C21.5679 11.4674 21.6594 10.6535 21.6667 9.83661C22.9829 10.5965 24.0761 11.6892 24.8367 13.005C25.5972 14.3208 25.9984 15.8135 26 17.3333ZM19.4751 10.4552C19.5764 9.05947 19.3761 7.65829 18.8877 6.34686C18.3994 5.03544 17.6345 3.8445 16.645 2.85498C15.6554 1.86545 14.4645 1.10053 13.1531 0.612194C11.8417 0.123854 10.4405 -0.0764621 9.04475 0.0248574C6.57141 0.307317 4.28667 1.4843 2.62077 3.33416C0.954879 5.18403 0.0227794 7.57913 0 10.0684L0 15.5284C0 18.2714 1.63258 19.4999 3.25 19.4999H9.425C11.9154 19.4785 14.3119 18.547 16.1631 16.881C18.0143 15.215 19.1923 12.9295 19.4751 10.4552ZM15.1125 4.38852C15.8816 5.15932 16.4762 6.08632 16.8559 7.10681C17.2357 8.1273 17.3919 9.21746 17.3138 10.3035C17.0826 12.2358 16.153 14.017 14.7001 15.3117C13.2472 16.6064 11.3711 17.3254 9.425 17.3333H3.25C2.24467 17.3333 2.16667 15.952 2.16667 15.5284V10.0684C2.1757 8.12318 2.89537 6.24829 4.19024 4.79659C5.48512 3.3449 7.26591 2.4165 9.1975 2.18611C9.37733 2.17311 9.55717 2.16661 9.737 2.16661C10.735 2.16568 11.7235 2.36143 12.6458 2.74268C13.5682 3.12393 14.4064 3.6832 15.1125 4.38852Z" fill="#374957"/>
</g>
<defs>
<clipPath id="clip0_7_3301">
<rect width="26" height="26" fill="white"/>
</clipPath>
</defs>
</svg>
