<svg width="288" height="54" viewBox="0 0 288 54" fill="none" xmlns="http://www.w3.org/2000/svg">
<path d="M21.2174 36.162C21.3254 35.7917 21.3794 35.4679 21.3794 35.1902C21.3794 33.6632 20.1916 32.5295 17.8161 31.7892C15.4407 31.0025 12.8133 30.6555 9.93386 30.7481V39.4936L11.7695 39.563C13.893 39.563 15.8906 39.3316 17.7622 38.8689C19.6698 38.3598 20.8216 37.4575 21.2174 36.162ZM9.93386 17.6298C11.9135 17.2134 13.5871 16.5887 14.9548 15.7558C16.3225 14.8767 17.0063 13.8355 17.0063 12.6324C17.0063 11.7069 16.4305 11.1054 15.2787 10.8278C14.163 10.5501 12.7593 10.4113 11.0676 10.4113C10.7797 10.3651 10.4018 10.3419 9.93386 10.3419V17.6298ZM21.2714 22.9049C24.7267 23.6916 27.4621 25.1722 29.4776 27.347C31.5292 29.5219 32.555 32.0668 32.555 34.982C32.555 36.7404 32.1411 38.5681 31.3132 40.4653C30.5214 42.3161 29.2977 44.144 27.642 45.9486C25.1946 48.4935 22.1713 50.2751 18.572 51.2931C14.9728 52.311 11.2836 52.8201 7.50438 52.8201C4.84103 52.8201 2.44751 52.635 0.323933 52.2648L0 1.5964C3.63525 0.763496 7.25247 0.347044 10.8517 0.347044C14.127 0.347044 17.0783 0.694087 19.7057 1.38817C22.3692 2.08226 24.4748 3.10021 26.0224 4.44216C27.6061 5.78411 28.3979 7.38051 28.3979 9.23136C28.3979 11.8227 27.696 14.3214 26.2923 16.7275C24.9247 19.1336 23.2511 21.1928 21.2714 22.9049ZM48.2205 0V52.6118H37.9628V0H48.2205ZM107.964 19.018C110.484 21.1928 112.787 24.6863 114.875 29.4987L106.398 30.8175C105.643 29.5219 104.725 28.4344 103.645 27.5553C102.565 26.6761 101.414 26.2365 100.19 26.2365C99.002 26.2365 97.797 26.7224 96.5725 27.6941C95.1688 28.8972 94.1074 30.216 93.3872 31.6504C92.7037 33.0386 92.3614 34.4499 92.3614 35.8843C92.3614 37.1337 92.6313 38.3368 93.1712 39.4936C93.7111 40.6041 94.4853 41.5758 95.4927 42.4087C96.6448 43.2416 97.7246 43.6581 98.732 43.6581C100.1 43.6581 101.396 43.0796 102.619 41.9229C103.844 40.7197 104.977 39.1697 106.02 37.2725L114.875 38.6607C114.227 42.8252 112.625 46.3882 110.07 49.3496C107.515 52.311 103.952 53.8612 99.3799 54C95.8167 54 92.8657 53.1209 90.5258 51.3625C88.187 49.6041 86.4767 47.3368 85.3969 44.5604C84.3539 41.7378 83.8313 38.7533 83.8313 35.6067C83.8313 33.617 84.0116 31.7892 84.3711 30.1234C84.8398 28.1337 85.8472 26.0051 87.3945 23.7378C88.9785 21.4705 90.9037 19.5733 93.1712 18.0463C95.4387 16.5193 97.7786 15.7558 100.19 15.7558C102.889 15.7558 105.481 16.8431 107.964 19.018ZM120.046 0.832905H134.083L131.869 24.7095L139.643 15.8946L151.953 18.3933L140.939 31.581L155.138 47.4756L145.69 53.0283L130.627 36.3008L131.437 53.0283H119.182L120.046 0.832905ZM181.111 16.5193C181.111 15.455 180.715 14.5527 179.923 13.8123L171.933 11.1748V25.0566C172.688 25.0566 173.822 24.6169 175.334 23.7378C176.846 22.8123 178.178 21.7018 179.329 20.4062C180.517 19.1106 181.111 17.8149 181.111 16.5193ZM170.799 52.126H160.541V3.05398C161.693 2.22108 163.115 1.5964 164.806 1.17995C166.534 0.71727 168.406 0.485862 170.421 0.485862C173.768 0.485862 177.008 1.06431 180.139 2.22108C183.307 3.33162 185.7 4.90484 187.319 6.94087C189.551 9.53218 190.667 12.2853 190.667 15.2005C190.667 18.2545 189.533 21.2159 187.265 24.0848C184.998 26.9538 182.317 29.3831 179.221 31.3728C176.162 33.3624 173.517 34.6812 171.285 35.329L170.799 52.126ZM210.115 18.6015V52.6812H198.67V18.6015H210.115ZM203.097 3.05398C202.162 3.1928 201.082 3.81748 199.858 4.92802C198.634 6.03856 197.914 7.12592 197.698 8.19023C197.986 10.6889 198.707 12.5862 199.858 13.8817C201.01 15.1773 202.395 15.8252 204.015 15.8252C205.418 15.8252 206.822 15.3393 208.226 14.3676C209.666 13.3497 210.871 11.9615 211.843 10.2031C211.807 7.79696 211.124 5.96915 209.791 4.71979C208.496 3.42421 206.93 2.77635 205.094 2.77635C204.339 2.77635 203.673 2.86894 203.097 3.05398ZM240.826 19.018C243.346 21.1928 245.649 24.6863 247.737 29.4987L239.26 30.8175C238.505 29.5219 237.587 28.4344 236.507 27.5553C235.427 26.6761 234.276 26.2365 233.052 26.2365C231.864 26.2365 230.659 26.7224 229.435 27.6941C228.031 28.8972 226.969 30.216 226.249 31.6504C225.566 33.0386 225.223 34.4499 225.223 35.8843C225.223 37.1337 225.493 38.3368 226.033 39.4936C226.573 40.6041 227.347 41.5758 228.355 42.4087C229.507 43.2416 230.587 43.6581 231.594 43.6581C232.962 43.6581 234.258 43.0796 235.481 41.9229C236.706 40.7197 237.839 39.1697 238.883 37.2725L247.737 38.6607C247.089 42.8252 245.487 46.3882 242.932 49.3496C240.377 52.311 236.814 53.8612 232.242 54C228.679 54 225.728 53.1209 223.388 51.3625C221.049 49.6041 219.339 47.3368 218.259 44.5604C217.216 41.7378 216.693 38.7533 216.693 35.6067C216.693 33.617 216.874 31.7892 217.233 30.1234C217.702 28.1337 218.709 26.0051 220.257 23.7378C221.841 21.4705 223.766 19.5733 226.033 18.0463C228.301 16.5193 230.641 15.7558 233.052 15.7558C235.751 15.7558 238.343 16.8431 240.826 19.018ZM252.908 0.832905H266.945L264.731 24.7095L272.505 15.8946L284.815 18.3933L273.801 31.581L288 47.4756L278.552 53.0283L263.489 36.3008L264.299 53.0283H252.044L252.908 0.832905Z" fill="#505050"/>
<path d="M68.2567 26.0698L67.6088 40.4374L71.8739 40.1598L73.2776 25.3757L68.2567 26.0698ZM78.8384 53.7639L53.3019 53.278L55.4074 15.6585L81.1599 13.0903L78.8384 53.7639Z" fill="#4CC9C8"/>
</svg>
