<svg width="26" height="26" viewBox="0 0 26 26" fill="none" xmlns="http://www.w3.org/2000/svg">
<g clip-path="url(#clip0_7_3299)">
<path d="M12.9988 13C13.8559 13 14.6937 12.7459 15.4063 12.2697C16.1189 11.7935 16.6743 11.1168 17.0023 10.325C17.3303 9.53315 17.4161 8.66186 17.2489 7.82127C17.0817 6.98069 16.669 6.20856 16.063 5.60254C15.4569 4.99651 14.6848 4.5838 13.8442 4.4166C13.0036 4.24939 12.1324 4.33521 11.3405 4.66319C10.5487 4.99117 9.87196 5.54658 9.39581 6.2592C8.91965 6.97181 8.66551 7.80961 8.66551 8.66667C8.66551 9.81594 9.12205 10.9181 9.93471 11.7308C10.7474 12.5435 11.8496 13 12.9988 13ZM12.9988 6.5C13.4274 6.5 13.8463 6.62707 14.2026 6.86515C14.5589 7.10323 14.8366 7.44161 15.0006 7.83752C15.1646 8.23343 15.2075 8.66907 15.1239 9.08936C15.0403 9.50965 14.8339 9.89572 14.5309 10.1987C14.2279 10.5017 13.8418 10.7081 13.4215 10.7917C13.0012 10.8753 12.5656 10.8324 12.1697 10.6684C11.7738 10.5044 11.4354 10.2267 11.1973 9.8704C10.9592 9.51409 10.8322 9.09519 10.8322 8.66667C10.8322 8.09203 11.0604 7.54093 11.4668 7.1346C11.8731 6.72827 12.4242 6.5 12.9988 6.5ZM22.3805 9.92008L21.6016 9.66117C21.7418 8.44775 21.6238 7.21841 21.2556 6.05376C20.8873 4.88911 20.277 3.81546 19.4647 2.90322C18.6524 1.99097 17.6564 1.26074 16.5421 0.760406C15.4278 0.260073 14.2203 0.000939772 12.9988 0C11.7614 0.000477717 10.5385 0.266169 9.41237 0.779171C8.28629 1.29217 7.28324 2.04057 6.47081 2.97394C5.65837 3.90731 5.05542 5.00397 4.70258 6.19002C4.34973 7.37608 4.2552 8.62399 4.42534 9.84967C3.38863 10.043 2.42998 10.5321 1.66501 11.258C1.13544 11.7615 0.714457 12.3679 0.427925 13.0401C0.141393 13.7123 -0.00462819 14.436 -0.00116035 15.1667V19.5812C0.00111637 20.7527 0.382114 21.892 1.08498 22.8291C1.78784 23.7663 2.77489 24.4511 3.89884 24.7812L7.00801 25.7562C7.53024 25.9188 8.07415 26.001 8.62109 26C9.11725 25.9994 9.61103 25.9316 10.089 25.7985L16.3507 23.946C16.9085 23.7937 17.4969 23.7937 18.0548 23.946L20.6407 24.8127C21.278 24.9678 21.9422 24.9762 22.5833 24.8373C23.2243 24.6984 23.8255 24.4157 24.3414 24.0107C24.8573 23.6056 25.2746 23.0888 25.5617 22.499C25.8488 21.9093 25.9983 21.262 25.9988 20.6061V15.028C25.9964 13.9072 25.6473 12.8146 24.9996 11.8999C24.3518 10.9853 23.437 10.2933 22.3805 9.919V9.92008ZM8.40334 4.0755C9.00595 3.47045 9.72211 2.99035 10.5107 2.66276C11.2993 2.33517 12.1449 2.16654 12.9988 2.16654C13.8528 2.16654 14.6983 2.33517 15.4869 2.66276C16.2756 2.99035 16.9917 3.47045 17.5943 4.0755C18.81 5.29874 19.4933 6.95263 19.4956 8.67721C19.4978 10.4018 18.8188 12.0575 17.6063 13.2838L13.7572 17.0267C13.5563 17.2237 13.2861 17.3341 13.0048 17.3341C12.7234 17.3341 12.4533 17.2237 12.2524 17.0267L8.40334 13.3001C7.1851 12.0742 6.50134 10.4161 6.50134 8.68779C6.50134 6.95951 7.1851 5.30141 8.40334 4.0755ZM23.8322 20.6061C23.8328 20.9342 23.7586 21.2581 23.6152 21.5533C23.4718 21.8484 23.2629 22.1069 23.0045 22.3091C22.7603 22.5054 22.4759 22.6455 22.1715 22.7195C21.867 22.7934 21.55 22.7994 21.243 22.737L18.7026 21.8833C17.7417 21.6073 16.7233 21.6013 15.7592 21.866L9.49317 23.7163C8.89114 23.8824 8.254 23.8715 7.65801 23.6849L4.52284 22.7099C3.8443 22.5137 3.24771 22.1027 2.82265 21.5385C2.3976 20.9744 2.16701 20.2876 2.16551 19.5812V15.1667C2.16307 14.7288 2.25023 14.295 2.42163 13.892C2.59303 13.489 2.84504 13.1254 3.16217 12.8234C3.65862 12.3503 4.29103 12.0449 4.97026 11.9502C5.40695 13.0327 6.05725 14.0161 6.88234 14.8417L10.7466 18.5824C11.3506 19.1738 12.1622 19.505 13.0075 19.505C13.8528 19.505 14.6645 19.1738 15.2684 18.5824L19.1283 14.8308C19.9926 13.9631 20.6621 12.9213 21.0924 11.7747L21.6742 11.9676C22.3051 12.1937 22.8509 12.6089 23.2371 13.1566C23.6233 13.7043 23.8311 14.3578 23.8322 15.028V20.6061Z" fill="#374957"/>
</g>
<defs>
<clipPath id="clip0_7_3299">
<rect width="26" height="26" fill="white"/>
</clipPath>
</defs>
</svg>
